# Blender 4.5.3 LTS
# www.blender.org
mtllib Cube_green_222_44.mtl
o Cube
v 1.600000 1.600000 -2.000000
v 1.600000 2.000000 -1.600000
v 2.000000 1.600000 -1.600000
v 1.600000 1.753073 -1.969552
v 1.600000 1.882843 -1.882843
v 1.753073 1.600000 -1.969552
v 1.756910 1.756910 -1.932804
v 1.748948 1.862502 -1.862502
v 1.830940 1.830940 -1.830940
v 1.753073 1.969552 -1.600000
v 1.882843 1.882843 -1.600000
v 1.600000 1.969552 -1.753073
v 1.756910 1.932804 -1.756910
v 1.862502 1.862502 -1.748948
v 1.969552 1.600000 -1.753073
v 1.882843 1.600000 -1.882843
v 1.969552 1.753073 -1.600000
v 1.932804 1.756910 -1.756910
v 1.862502 1.748948 -1.862502
v 1.600000 0.000000 -1.600000
v 1.600000 0.400000 -2.000000
v 2.000000 0.400000 -1.600000
v 1.600000 0.030448 -1.753073
v 1.600000 0.117157 -1.882843
v 1.753073 0.030448 -1.600000
v 1.756910 0.067196 -1.756910
v 1.748948 0.137498 -1.862502
v 1.830940 0.169060 -1.830940
v 1.753073 0.400000 -1.969552
v 1.882843 0.400000 -1.882843
v 1.600000 0.246927 -1.969552
v 1.756910 0.243090 -1.932804
v 1.862502 0.251052 -1.862502
v 1.969552 0.246927 -1.600000
v 1.882843 0.117157 -1.600000
v 1.969552 0.400000 -1.753073
v 1.932804 0.243090 -1.756910
v 1.862502 0.137498 -1.748948
v 2.000000 1.600000 -0.400000
v 1.600000 2.000000 -0.400000
v 1.600000 1.600000 0.000000
v 1.969552 1.753073 -0.400000
v 1.882843 1.882843 -0.400000
v 1.969552 1.600000 -0.246927
v 1.932804 1.756910 -0.243090
v 1.862502 1.862502 -0.251052
v 1.830940 1.830940 -0.169060
v 1.600000 1.969552 -0.246927
v 1.600000 1.882843 -0.117157
v 1.753073 1.969552 -0.400000
v 1.756910 1.932804 -0.243090
v 1.748948 1.862502 -0.137498
v 1.753073 1.600000 -0.030448
v 1.882843 1.600000 -0.117157
v 1.600000 1.753073 -0.030448
v 1.756910 1.756910 -0.067196
v 1.862502 1.748948 -0.137498
v 2.000000 0.400000 -0.400000
v 1.600000 0.400000 0.000000
v 1.600000 0.000000 -0.400000
v 1.969552 0.400000 -0.246927
v 1.882843 0.400000 -0.117157
v 1.969552 0.246927 -0.400000
v 1.932804 0.243090 -0.243090
v 1.862502 0.251052 -0.137498
v 1.830940 0.169060 -0.169060
v 1.600000 0.246927 -0.030448
v 1.600000 0.117157 -0.117157
v 1.753073 0.400000 -0.030448
v 1.756910 0.243090 -0.067196
v 1.748948 0.137498 -0.137498
v 1.753073 0.030448 -0.400000
v 1.882843 0.117157 -0.400000
v 1.600000 0.030448 -0.246927
v 1.756910 0.067196 -0.243090
v 1.862502 0.137498 -0.251052
v 0.400000 1.600000 -2.000000
v 0.000000 1.600000 -1.600000
v 0.400000 2.000000 -1.600000
v 0.246927 1.600000 -1.969552
v 0.117157 1.600000 -1.882843
v 0.400000 1.753073 -1.969552
v 0.243090 1.756910 -1.932804
v 0.137498 1.748948 -1.862502
v 0.169060 1.830940 -1.830940
v 0.030448 1.753073 -1.600000
v 0.117157 1.882843 -1.600000
v 0.030448 1.600000 -1.753073
v 0.067196 1.756910 -1.756910
v 0.137498 1.862502 -1.748948
v 0.400000 1.969552 -1.753073
v 0.400000 1.882843 -1.882843
v 0.246927 1.969552 -1.600000
v 0.243090 1.932804 -1.756910
v 0.251052 1.862502 -1.862502
v 0.000000 0.400000 -1.600000
v 0.400000 0.400000 -2.000000
v 0.400000 0.000000 -1.600000
v 0.030448 0.400000 -1.753073
v 0.117157 0.400000 -1.882843
v 0.030448 0.246927 -1.600000
v 0.067196 0.243090 -1.756910
v 0.137498 0.251052 -1.862502
v 0.169060 0.169060 -1.830940
v 0.400000 0.246927 -1.969552
v 0.400000 0.117157 -1.882843
v 0.246927 0.400000 -1.969552
v 0.243090 0.243090 -1.932804
v 0.251052 0.137498 -1.862502
v 0.246927 0.030448 -1.600000
v 0.117157 0.117157 -1.600000
v 0.400000 0.030448 -1.753073
v 0.243090 0.067196 -1.756910
v 0.137498 0.137498 -1.748948
v 0.000000 1.600000 -0.400000
v 0.400000 1.600000 0.000000
v 0.400000 2.000000 -0.400000
v 0.030448 1.600000 -0.246927
v 0.117157 1.600000 -0.117157
v 0.030448 1.753073 -0.400000
v 0.067196 1.756910 -0.243090
v 0.137498 1.748948 -0.137498
v 0.169060 1.830940 -0.169060
v 0.400000 1.753073 -0.030448
v 0.400000 1.882843 -0.117157
v 0.246927 1.600000 -0.030448
v 0.243090 1.756910 -0.067196
v 0.251052 1.862502 -0.137498
v 0.246927 1.969552 -0.400000
v 0.117157 1.882843 -0.400000
v 0.400000 1.969552 -0.246927
v 0.243090 1.932804 -0.243090
v 0.137498 1.862502 -0.251052
v 0.400000 0.000000 -0.400000
v 0.400000 0.400000 0.000000
v 0.000000 0.400000 -0.400000
v 0.400000 0.030448 -0.246927
v 0.400000 0.117157 -0.117157
v 0.246927 0.030448 -0.400000
v 0.243090 0.067196 -0.243090
v 0.251052 0.137498 -0.137498
v 0.169060 0.169060 -0.169060
v 0.246927 0.400000 -0.030448
v 0.117157 0.400000 -0.117157
v 0.400000 0.246927 -0.030448
v 0.243090 0.243090 -0.067196
v 0.137498 0.251052 -0.137498
v 0.030448 0.246927 -0.400000
v 0.117157 0.117157 -0.400000
v 0.030448 0.400000 -0.246927
v 0.067196 0.243090 -0.243090
v 0.137498 0.137498 -0.251052
vn 0.2049 0.2049 -0.9571
vn 0.1818 0.5500 -0.8152
vn 0.5500 0.1818 -0.8152
vn 0.4931 0.4931 -0.7167
vn 0.2049 0.9571 -0.2049
vn 0.5500 0.8152 -0.1818
vn 0.1818 0.8152 -0.5500
vn 0.4931 0.7167 -0.4931
vn 0.9571 0.2049 -0.2049
vn 0.8152 0.1818 -0.5500
vn 0.8152 0.5500 -0.1818
vn 0.7167 0.4931 -0.4931
vn 0.2049 -0.9571 -0.2049
vn 0.1818 -0.8152 -0.5500
vn 0.5500 -0.8152 -0.1818
vn 0.4931 -0.7167 -0.4931
vn 0.2049 -0.2049 -0.9571
vn 0.5500 -0.1818 -0.8152
vn 0.1818 -0.5500 -0.8152
vn 0.4931 -0.4931 -0.7167
vn 0.9571 -0.2049 -0.2049
vn 0.8152 -0.5500 -0.1818
vn 0.8152 -0.1818 -0.5500
vn 0.7167 -0.4931 -0.4931
vn 0.9571 0.2049 0.2049
vn 0.8152 0.5500 0.1818
vn 0.8152 0.1818 0.5500
vn 0.7167 0.4931 0.4931
vn 0.2049 0.9571 0.2049
vn 0.1818 0.8152 0.5500
vn 0.5500 0.8152 0.1818
vn 0.4931 0.7167 0.4931
vn 0.2049 0.2049 0.9571
vn 0.5500 0.1818 0.8152
vn 0.1818 0.5500 0.8152
vn 0.4931 0.4931 0.7167
vn 0.9571 -0.2049 0.2049
vn 0.8152 -0.1818 0.5500
vn 0.8152 -0.5500 0.1818
vn 0.7167 -0.4931 0.4931
vn 0.2049 -0.2049 0.9571
vn 0.1818 -0.5500 0.8152
vn 0.5500 -0.1818 0.8152
vn 0.4931 -0.4931 0.7167
vn 0.2049 -0.9571 0.2049
vn 0.5500 -0.8152 0.1818
vn 0.1818 -0.8152 0.5500
vn 0.4931 -0.7167 0.4931
vn -0.2049 0.2049 -0.9571
vn -0.5500 0.1818 -0.8152
vn -0.1818 0.5500 -0.8152
vn -0.4931 0.4931 -0.7167
vn -0.9571 0.2049 -0.2049
vn -0.8152 0.5500 -0.1818
vn -0.8152 0.1818 -0.5500
vn -0.7167 0.4931 -0.4931
vn -0.2049 0.9571 -0.2049
vn -0.1818 0.8152 -0.5500
vn -0.5500 0.8152 -0.1818
vn -0.4931 0.7167 -0.4931
vn -0.9571 -0.2049 -0.2049
vn -0.8152 -0.1818 -0.5500
vn -0.8152 -0.5500 -0.1818
vn -0.7167 -0.4931 -0.4931
vn -0.2049 -0.2049 -0.9571
vn -0.1818 -0.5500 -0.8152
vn -0.5500 -0.1818 -0.8152
vn -0.4931 -0.4931 -0.7167
vn -0.2049 -0.9571 -0.2049
vn -0.5500 -0.8152 -0.1818
vn -0.1818 -0.8152 -0.5500
vn -0.4931 -0.7167 -0.4931
vn -0.9571 0.2049 0.2049
vn -0.8152 0.1818 0.5500
vn -0.8152 0.5500 0.1818
vn -0.7167 0.4931 0.4931
vn -0.2049 0.2049 0.9571
vn -0.1818 0.5500 0.8152
vn -0.5500 0.1818 0.8152
vn -0.4931 0.4931 0.7167
vn -0.2049 0.9571 0.2049
vn -0.5500 0.8152 0.1818
vn -0.1818 0.8152 0.5500
vn -0.4931 0.7167 0.4931
vn -0.2049 -0.9571 0.2049
vn -0.1818 -0.8152 0.5500
vn -0.5500 -0.8152 0.1818
vn -0.4931 -0.7167 0.4931
vn -0.2049 -0.2049 0.9571
vn -0.5500 -0.1818 0.8152
vn -0.1818 -0.5500 0.8152
vn -0.4931 -0.4931 0.7167
vn -0.9571 -0.2049 0.2049
vn -0.8152 -0.5500 0.1818
vn -0.8152 -0.1818 0.5500
vn -0.7167 -0.4931 0.4931
vn -0.1951 -0.9808 -0.0000
vn -0.5556 -0.8315 -0.0000
vn -0.8315 -0.5556 -0.0000
vn -0.9808 -0.1951 -0.0000
vn -0.0000 -0.9808 -0.1951
vn -0.0000 -0.8315 -0.5556
vn -0.0000 -0.5556 -0.8315
vn -0.0000 -0.1951 -0.9808
vn 0.9808 -0.0000 -0.1951
vn 0.8315 -0.0000 -0.5556
vn 0.5556 -0.0000 -0.8315
vn 0.1951 -0.0000 -0.9808
vn -0.1951 -0.0000 0.9808
vn -0.5556 -0.0000 0.8315
vn -0.8315 -0.0000 0.5556
vn -0.9808 -0.0000 0.1951
vn 0.1951 -0.0000 0.9808
vn 0.5556 -0.0000 0.8315
vn 0.8315 -0.0000 0.5556
vn 0.9808 -0.0000 0.1951
vn -0.1951 -0.0000 -0.9808
vn -0.5556 -0.0000 -0.8315
vn -0.8315 -0.0000 -0.5556
vn -0.9808 -0.0000 -0.1951
vn -0.0000 0.9808 0.1951
vn -0.0000 0.8315 0.5556
vn -0.0000 0.5556 0.8315
vn -0.0000 0.1951 0.9808
vn 0.1951 0.9808 -0.0000
vn 0.5556 0.8315 -0.0000
vn 0.8315 0.5556 -0.0000
vn 0.9808 0.1951 -0.0000
vn -0.0000 -0.9808 0.1951
vn -0.0000 -0.8315 0.5556
vn -0.0000 -0.5556 0.8315
vn -0.0000 -0.1951 0.9808
vn -0.1951 0.9808 -0.0000
vn -0.5556 0.8315 -0.0000
vn -0.8315 0.5556 -0.0000
vn -0.9808 0.1951 -0.0000
vn -0.0000 0.9808 -0.1951
vn -0.0000 0.8315 -0.5556
vn -0.0000 0.5556 -0.8315
vn -0.0000 0.1951 -0.9808
vn 0.1951 -0.9808 -0.0000
vn 0.5556 -0.8315 -0.0000
vn 0.8315 -0.5556 -0.0000
vn 0.9808 -0.1951 -0.0000
vn -0.0000 -0.0000 -1.0000
vn 1.0000 -0.0000 -0.0000
vn -0.0000 1.0000 -0.0000
vn -0.0000 -1.0000 -0.0000
vn -0.0000 -0.0000 1.0000
vn -1.0000 -0.0000 -0.0000
vt 0.495097 0.351527
vt 0.506384 0.336076
vt 0.522504 0.347259
vt 0.510547 0.362814
vt 0.559526 0.305713
vt 0.561551 0.318722
vt 0.546454 0.365987
vt 0.535471 0.381022
vt 0.560810 0.346335
vt 0.634834 0.329768
vt 0.623547 0.345218
vt 0.607427 0.334036
vt 0.619384 0.318481
vt 0.605340 0.370142
vt 0.590305 0.359159
vt 0.575845 0.410516
vt 0.560395 0.399229
vt 0.571577 0.383108
vt 0.587132 0.395066
vt 0.428372 0.612387
vt 0.412921 0.601099
vt 0.424104 0.584979
vt 0.439659 0.596936
vt 0.382558 0.547958
vt 0.395567 0.545932
vt 0.442832 0.561030
vt 0.457867 0.572012
vt 0.423180 0.546673
vt 0.406613 0.472649
vt 0.422063 0.483936
vt 0.410881 0.500057
vt 0.395326 0.488100
vt 0.446987 0.502144
vt 0.436004 0.517178
vt 0.487361 0.531639
vt 0.476074 0.547089
vt 0.459953 0.535906
vt 0.471911 0.520351
vt 0.696967 0.499000
vt 0.708254 0.483550
vt 0.724375 0.494732
vt 0.712418 0.510287
vt 0.726462 0.458626
vt 0.741496 0.469609
vt 0.748324 0.513460
vt 0.737341 0.528495
vt 0.761148 0.483965
vt 0.755957 0.418252
vt 0.771407 0.429539
vt 0.760224 0.445659
vt 0.744669 0.433702
vt 0.801770 0.482681
vt 0.788762 0.484706
vt 0.777716 0.557989
vt 0.762265 0.546702
vt 0.773448 0.530582
vt 0.789003 0.542539
vt 0.608484 0.620122
vt 0.623934 0.631409
vt 0.612751 0.647530
vt 0.597196 0.635573
vt 0.648858 0.649617
vt 0.637875 0.664651
vt 0.594023 0.671479
vt 0.578989 0.660496
vt 0.623518 0.684303
vt 0.689232 0.679112
vt 0.677945 0.694562
vt 0.661824 0.683379
vt 0.673781 0.667824
vt 0.624803 0.724925
vt 0.622777 0.711917
vt 0.549494 0.700871
vt 0.560781 0.685420
vt 0.576902 0.696603
vt 0.564945 0.712158
vt 0.373975 0.263043
vt 0.358524 0.251756
vt 0.369707 0.235635
vt 0.385262 0.247593
vt 0.333600 0.233548
vt 0.344583 0.218514
vt 0.388435 0.211686
vt 0.403469 0.222669
vt 0.348330 0.195473
vt 0.293226 0.204054
vt 0.304513 0.188603
vt 0.320634 0.199786
vt 0.308677 0.215341
vt 0.322721 0.163680
vt 0.337755 0.174663
vt 0.723318 0.208646
vt 0.707868 0.197359
vt 0.719050 0.181238
vt 0.734605 0.193195
vt 0.682944 0.179151
vt 0.693927 0.164117
vt 0.737779 0.157289
vt 0.752813 0.168272
vt 0.699973 0.155841
vt 0.204743 0.325176
vt 0.220193 0.336463
vt 0.209010 0.352584
vt 0.193455 0.340627
vt 0.245117 0.354671
vt 0.234134 0.369705
vt 0.190282 0.376533
vt 0.175248 0.365550
vt 0.230387 0.392746
vt 0.285491 0.384165
vt 0.274204 0.399616
vt 0.258083 0.388433
vt 0.270040 0.372878
vt 0.255996 0.424540
vt 0.240962 0.413557
vt 0.339888 0.733509
vt 0.328601 0.748959
vt 0.312480 0.737777
vt 0.324438 0.722222
vt 0.310393 0.773883
vt 0.295359 0.762900
vt 0.288531 0.719048
vt 0.299514 0.704014
vt 0.287083 0.756854
vt 0.172104 0.115570
vt 0.156654 0.104283
vt 0.167836 0.088162
vt 0.183391 0.100119
vt 0.131730 0.086075
vt 0.142713 0.071041
vt 0.186565 0.064213
vt 0.201599 0.075196
vt 0.148759 0.062765
vt 0.898838 0.646473
vt 0.910125 0.631023
vt 0.926245 0.642205
vt 0.914288 0.657760
vt 0.928333 0.606099
vt 0.943367 0.617082
vt 0.950195 0.660933
vt 0.939212 0.675968
vt 0.951642 0.623128
vt 0.844440 0.297130
vt 0.855728 0.281679
vt 0.871848 0.292862
vt 0.859891 0.308417
vt 0.873935 0.256755
vt 0.888969 0.267738
vt 0.895797 0.311590
vt 0.884814 0.326624
vt 0.897245 0.273784
vt 0.461010 0.821993
vt 0.476461 0.833280
vt 0.465278 0.849400
vt 0.449723 0.837443
vt 0.501384 0.851487
vt 0.490402 0.866521
vt 0.446550 0.873350
vt 0.431516 0.862367
vt 0.484356 0.874797
vt 0.810354 0.767595
vt 0.825805 0.778883
vt 0.814622 0.795003
vt 0.799067 0.783046
vt 0.850728 0.797090
vt 0.839745 0.812124
vt 0.795893 0.818952
vt 0.780859 0.807969
vt 0.833699 0.820400
vt 0.083620 0.236692
vt 0.072333 0.252143
vt 0.056213 0.240960
vt 0.068170 0.225405
vt 0.054126 0.277066
vt 0.039091 0.266083
vt 0.032263 0.222232
vt 0.043246 0.207198
vt 0.030816 0.260038
s 0
usemtl Material
f 1/1/1 4/2/1 7/3/1 6/4/1
f 4/2/2 5/5/2 8/6/2 7/3/2
f 6/4/3 7/3/3 19/7/3 16/8/3
f 7/3/4 8/6/4 9/9/4 19/7/4
f 2/10/5 10/11/5 13/12/5 12/13/5
f 10/11/6 11/14/6 14/15/6 13/12/6
f 12/13/7 13/12/7 8/6/7 5/5/7
f 13/12/8 14/15/8 9/9/8 8/6/8
f 3/16/9 15/17/9 18/18/9 17/19/9
f 15/17/10 16/8/10 19/7/10 18/18/10
f 17/19/11 18/18/11 14/15/11 11/14/11
f 18/18/12 19/7/12 9/9/12 14/15/12
f 20/20/13 23/21/13 26/22/13 25/23/13
f 23/21/14 24/24/14 27/25/14 26/22/14
f 25/23/15 26/22/15 38/26/15 35/27/15
f 26/22/16 27/25/16 28/28/16 38/26/16
f 21/29/17 29/30/17 32/31/17 31/32/17
f 29/30/18 30/33/18 33/34/18 32/31/18
f 31/32/19 32/31/19 27/25/19 24/24/19
f 32/31/20 33/34/20 28/28/20 27/25/20
f 22/35/21 34/36/21 37/37/21 36/38/21
f 34/36/22 35/27/22 38/26/22 37/37/22
f 36/38/23 37/37/23 33/34/23 30/33/23
f 37/37/24 38/26/24 28/28/24 33/34/24
f 39/39/25 42/40/25 45/41/25 44/42/25
f 42/40/26 43/43/26 46/44/26 45/41/26
f 44/42/27 45/41/27 57/45/27 54/46/27
f 45/41/28 46/44/28 47/47/28 57/45/28
f 40/48/29 48/49/29 51/50/29 50/51/29
f 48/49/30 49/52/30 52/53/30 51/50/30
f 50/51/31 51/50/31 46/44/31 43/43/31
f 51/50/32 52/53/32 47/47/32 46/44/32
f 41/54/33 53/55/33 56/56/33 55/57/33
f 53/55/34 54/46/34 57/45/34 56/56/34
f 55/57/35 56/56/35 52/53/35 49/52/35
f 56/56/36 57/45/36 47/47/36 52/53/36
f 58/58/37 61/59/37 64/60/37 63/61/37
f 61/59/38 62/62/38 65/63/38 64/60/38
f 63/61/39 64/60/39 76/64/39 73/65/39
f 64/60/40 65/63/40 66/66/40 76/64/40
f 59/67/41 67/68/41 70/69/41 69/70/41
f 67/68/42 68/71/42 71/72/42 70/69/42
f 69/70/43 70/69/43 65/63/43 62/62/43
f 70/69/44 71/72/44 66/66/44 65/63/44
f 60/73/45 72/74/45 75/75/45 74/76/45
f 72/74/46 73/65/46 76/64/46 75/75/46
f 74/76/47 75/75/47 71/72/47 68/71/47
f 75/75/48 76/64/48 66/66/48 71/72/48
f 77/77/49 80/78/49 83/79/49 82/80/49
f 80/78/50 81/81/50 84/82/50 83/79/50
f 82/80/51 83/79/51 95/83/51 92/84/51
f 83/79/52 84/82/52 85/85/52 95/83/52
f 78/86/53 86/87/53 89/88/53 88/89/53
f 86/87/54 87/90/54 90/91/54 89/88/54
f 88/89/55 89/88/55 84/82/55 81/81/55
f 89/88/56 90/91/56 85/85/56 84/82/56
f 79/92/57 91/93/57 94/94/57 93/95/57
f 91/93/58 92/96/58 95/97/58 94/94/58
f 93/95/59 94/94/59 90/98/59 87/99/59
f 94/94/60 95/97/60 85/100/60 90/98/60
f 96/101/61 99/102/61 102/103/61 101/104/61
f 99/102/62 100/105/62 103/106/62 102/103/62
f 101/104/63 102/103/63 114/107/63 111/108/63
f 102/103/64 103/106/64 104/109/64 114/107/64
f 97/110/65 105/111/65 108/112/65 107/113/65
f 105/111/66 106/114/66 109/115/66 108/112/66
f 107/113/67 108/112/67 103/106/67 100/105/67
f 108/112/68 109/115/68 104/109/68 103/106/68
f 98/116/69 110/117/69 113/118/69 112/119/69
f 110/117/70 111/120/70 114/121/70 113/118/70
f 112/119/71 113/118/71 109/122/71 106/123/71
f 113/118/72 114/121/72 104/124/72 109/122/72
f 115/125/73 118/126/73 121/127/73 120/128/73
f 118/126/74 119/129/74 122/130/74 121/127/74
f 120/128/75 121/127/75 133/131/75 130/132/75
f 121/127/76 122/130/76 123/133/76 133/131/76
f 116/134/77 124/135/77 127/136/77 126/137/77
f 124/135/78 125/138/78 128/139/78 127/136/78
f 126/137/79 127/136/79 122/140/79 119/141/79
f 127/136/80 128/139/80 123/142/80 122/140/80
f 117/143/81 129/144/81 132/145/81 131/146/81
f 129/144/82 130/147/82 133/148/82 132/145/82
f 131/146/83 132/145/83 128/149/83 125/150/83
f 132/145/84 133/148/84 123/151/84 128/149/84
f 134/152/85 137/153/85 140/154/85 139/155/85
f 137/153/86 138/156/86 141/157/86 140/154/86
f 139/155/87 140/154/87 152/158/87 149/159/87
f 140/154/88 141/157/88 142/160/88 152/158/88
f 135/161/89 143/162/89 146/163/89 145/164/89
f 143/162/90 144/165/90 147/166/90 146/163/90
f 145/164/91 146/163/91 141/167/91 138/168/91
f 146/163/92 147/166/92 142/169/92 141/167/92
f 136/170/93 148/171/93 151/172/93 150/173/93
f 148/171/94 149/174/94 152/175/94 151/172/94
f 150/173/95 151/172/95 147/176/95 144/177/95
f 151/172/96 152/175/96 142/178/96 147/176/96
f 98/116/97 134/152/97 139/155/97 110/117/97
f 110/117/98 139/155/98 149/159/98 111/120/98
f 111/108/99 149/174/99 148/171/99 101/104/99
f 101/104/100 148/171/100 136/170/100 96/101/100
f 20/20/101 98/116/101 112/119/101 23/21/101
f 23/21/102 112/119/102 106/123/102 24/24/102
f 24/24/103 106/114/103 105/111/103 31/32/103
f 31/32/104 105/111/104 97/110/104 21/29/104
f 3/16/105 22/35/105 36/38/105 15/17/105
f 15/17/106 36/38/106 30/33/106 16/8/106
f 16/8/107 30/33/107 29/30/107 6/4/107
f 6/4/108 29/30/108 21/29/108 1/1/108
f 135/161/109 116/134/109 126/137/109 143/162/109
f 143/162/110 126/137/110 119/141/110 144/165/110
f 144/177/111 119/129/111 118/126/111 150/173/111
f 150/173/112 118/126/112 115/125/112 136/170/112
f 41/54/113 59/67/113 69/70/113 53/55/113
f 53/55/114 69/70/114 62/62/114 54/46/114
f 54/46/115 62/62/115 61/59/115 44/42/115
f 44/42/116 61/59/116 58/58/116 39/39/116
f 77/77/117 97/110/117 107/113/117 80/78/117
f 80/78/118 107/113/118 100/105/118 81/81/118
f 81/81/119 100/105/119 99/102/119 88/89/119
f 88/89/120 99/102/120 96/101/120 78/86/120
f 40/48/121 117/143/121 131/146/121 48/49/121
f 48/49/122 131/146/122 125/150/122 49/52/122
f 49/52/123 125/138/123 124/135/123 55/57/123
f 55/57/124 124/135/124 116/134/124 41/54/124
f 2/10/125 40/48/125 50/51/125 10/11/125
f 10/11/126 50/51/126 43/43/126 11/14/126
f 11/14/127 43/43/127 42/40/127 17/19/127
f 17/19/128 42/40/128 39/39/128 3/16/128
f 134/152/129 60/73/129 74/76/129 137/153/129
f 137/153/130 74/76/130 68/71/130 138/156/130
f 138/168/131 68/71/131 67/68/131 145/164/131
f 145/164/132 67/68/132 59/67/132 135/161/132
f 117/143/133 79/92/133 93/95/133 129/144/133
f 129/144/134 93/95/134 87/99/134 130/147/134
f 130/132/135 87/90/135 86/87/135 120/128/135
f 120/128/136 86/87/136 78/86/136 115/125/136
f 79/92/137 2/10/137 12/13/137 91/93/137
f 91/93/138 12/13/138 5/5/138 92/96/138
f 92/84/139 5/5/139 4/2/139 82/80/139
f 82/80/140 4/2/140 1/1/140 77/77/140
f 60/73/141 20/20/141 25/23/141 72/74/141
f 72/74/142 25/23/142 35/27/142 73/65/142
f 73/65/143 35/27/143 34/36/143 63/61/143
f 63/61/144 34/36/144 22/35/144 58/58/144
f 97/110/145 77/77/145 1/1/145 21/29/145
f 22/35/146 3/16/146 39/39/146 58/58/146
f 2/10/147 79/92/147 117/143/147 40/48/147
f 98/116/148 20/20/148 60/73/148 134/152/148
f 59/67/149 41/54/149 116/134/149 135/161/149
f 136/170/150 115/125/150 78/86/150 96/101/150
